<?xml version="1.0" encoding="UTF-8" standalone="no"?>
<svg
   id="Layer_1"
   version="1.1"
   viewBox="0 0 256.26999 273.26999"
   sodipodi:docname="bn-logo.svg"
   width="256.26999"
   height="273.26999"
   inkscape:version="1.4 (86a8ad7, 2024-10-11)"
   xmlns:inkscape="http://www.inkscape.org/namespaces/inkscape"
   xmlns:sodipodi="http://sodipodi.sourceforge.net/DTD/sodipodi-0.dtd"
   xmlns="http://www.w3.org/2000/svg"
   xmlns:svg="http://www.w3.org/2000/svg">
  <defs
     id="defs3" />
  <sodipodi:namedview
     id="namedview3"
     pagecolor="#ffffff"
     bordercolor="#000000"
     borderopacity="0.25"
     inkscape:showpageshadow="2"
     inkscape:pageopacity="0.0"
     inkscape:pagecheckerboard="0"
     inkscape:deskcolor="#d1d1d1"
     inkscape:zoom="2.2416667"
     inkscape:cx="73.828996"
     inkscape:cy="93.457249"
     inkscape:window-width="1920"
     inkscape:window-height="1009"
     inkscape:window-x="1912"
     inkscape:window-y="-8"
     inkscape:window-maximized="1"
     inkscape:current-layer="Layer_1" />
  <!-- Generator: Adobe Illustrator 29.1.0, SVG Export Plug-In . SVG Version: 2.1.0 Build 142)  -->
  <rect
     x="0"
     y="0"
     width="26.27"
     height="273.26999"
     id="rect1" />
  <g
     id="g2"
     transform="translate(-52.880001,-43.369999)">
    <polygon
       points="190,207.33 94.36,207.33 94.36,234.65 162.68,234.65 162.68,289.31 94.36,289.31 94.36,316.63 190,316.63 190,275.64 255.11,275.64 255.11,248.32 190,248.32 "
       id="polygon1" />
    <polygon
       points="255.11,84.36 190,84.36 190,43.37 94.36,43.37 94.36,70.69 162.68,70.69 162.68,125.35 94.36,125.35 94.36,152.67 190,152.67 190,111.68 255.11,111.68 "
       id="polygon2" />
  </g>
  <polygon
     points="224.58,127.94 205.9,127.94 205.9,229.4 229.22,229.4 229.22,164.63 290.48,229.4 309.15,229.4 309.15,127.94 285.84,127.94 285.84,192.71 "
     id="polygon3"
     transform="translate(-52.880001,-43.369999)" />
</svg>
