<?xml version="1.0" encoding="UTF-8" standalone="no"?>
<svg
   id="Layer_1"
   version="1.1"
   viewBox="0 0 964.23999 210.10001"
   sodipodi:docname="bracket-night.svg"
   width="964.23999"
   height="210.10001"
   inkscape:version="1.4 (86a8ad7, 2024-10-11)"
   xmlns:inkscape="http://www.inkscape.org/namespaces/inkscape"
   xmlns:sodipodi="http://sodipodi.sourceforge.net/DTD/sodipodi-0.dtd"
   xmlns="http://www.w3.org/2000/svg"
   xmlns:svg="http://www.w3.org/2000/svg">
  <defs
     id="defs8" />
  <sodipodi:namedview
     id="namedview8"
     pagecolor="#ffffff"
     bordercolor="#000000"
     borderopacity="0.25"
     inkscape:showpageshadow="2"
     inkscape:pageopacity="0.0"
     inkscape:pagecheckerboard="0"
     inkscape:deskcolor="#d1d1d1"
     inkscape:zoom="1.6444444"
     inkscape:cx="469.15541"
     inkscape:cy="106.72297"
     inkscape:window-width="1920"
     inkscape:window-height="1009"
     inkscape:window-x="1912"
     inkscape:window-y="-8"
     inkscape:window-maximized="1"
     inkscape:current-layer="Layer_1" />
  <!-- Generator: Adobe Illustrator 29.1.0, SVG Export Plug-In . SVG Version: 2.1.0 Build 142)  -->
  <rect
     x="0"
     y="0"
     width="20.200001"
     height="210.10001"
     id="rect1" />
  <g
     id="g2"
     transform="translate(-71.07,-73.25)">
    <polygon
       points="226.56,104.76 176.5,104.76 176.5,73.25 102.97,73.25 102.97,94.26 155.49,94.26 155.49,136.28 102.97,136.28 102.97,157.29 176.5,157.29 176.5,125.77 226.56,125.77 "
       id="polygon1" />
    <polygon
       points="176.5,199.31 102.97,199.31 102.97,220.32 155.49,220.32 155.49,262.34 102.97,262.34 102.97,283.35 176.5,283.35 176.5,251.83 226.56,251.83 226.56,230.82 176.5,230.82 "
       id="polygon2" />
  </g>
  <g
     id="g8"
     transform="translate(-71.07,-73.25)">
    <path
       d="m 296.36,140.28 -33.11,77.25 -13.52,-32.69 c 7.55,-4.03 12.27,-11.93 12.27,-20.92 0,-13.47 -10.25,-23.64 -23.83,-23.64 h -45.3 v 78 h 17.92 v -30.73 h 21.14 l 12.8,30.73 h 36.73 l 4.14,-10.24 h 35.97 l 4.33,10.24 h 18.29 l -33.43,-78 z m -52.29,23.64 c 0,4.37 -2.72,7.09 -7.09,7.09 h -26.2 v -14.18 h 26.2 c 4.37,0 7.09,2.72 7.09,7.09 z m 70.52,27.57 h -22.06 l 11.03,-26.47 z"
       id="path2" />
    <path
       d="m 380.58,156.04 c 6.34,0 11.87,2.37 16,6.86 l 2.22,2.42 12.47,-12.47 -2.3,-2.23 c -7.64,-7.41 -17.46,-11.33 -28.39,-11.33 -22.27,0 -40.38,17.94 -40.38,39.99 0,23.54 16.6,39.99 40.38,39.99 10.62,0 20.65,-4.17 28.23,-11.76 l 2.23,-2.23 -12.23,-12.23 -2.22,2.42 c -4.19,4.55 -9.87,7.06 -16,7.06 -12.48,0 -22.26,-10.21 -22.26,-23.24 0,-13.03 9.78,-23.24 22.26,-23.24 z"
       id="path3" />
    <polygon
       points="434.94,140.28 417.02,140.28 417.02,218.28 434.94,218.28 434.94,207.34 461.69,179.74 478.37,218.28 498.05,218.28 475.31,165.98 500.31,140.28 477.15,140.28 434.94,183.38 "
       id="polygon3" />
    <polygon
       points="570.85,201.73 519.44,201.73 519.44,187.55 570.06,187.55 570.06,171.01 519.44,171.01 519.44,156.82 570.85,156.82 570.85,140.28 501.52,140.28 501.52,218.28 570.85,218.28 "
       id="polygon4" />
    <polygon
       points="602.96,218.28 620.68,218.28 620.68,156.82 647.08,156.82 647.08,140.28 576.56,140.28 576.56,156.82 602.96,156.82 "
       id="polygon5" />
    <polygon
       points="685.09,140.28 685.09,218.28 703.02,218.28 703.02,168.49 750.12,218.28 764.47,218.28 764.47,140.28 746.55,140.28 746.55,190.07 699.45,140.28 "
       id="polygon6" />
    <rect
       x="775.10999"
       y="140.28"
       width="17.92"
       height="78"
       id="rect6" />
    <path
       d="m 839.32,192.67 h 21.41 c -4.06,6.1 -10.82,9.85 -18.26,9.85 -12.48,0 -22.26,-10.21 -22.26,-23.24 0,-13.03 9.78,-23.24 22.26,-23.24 6.34,0 11.87,2.37 16,6.86 l 2.22,2.42 12.47,-12.47 -2.3,-2.23 c -7.64,-7.41 -17.46,-11.33 -28.39,-11.33 -22.27,0 -40.38,17.94 -40.38,39.99 0,23.54 16.6,39.99 40.38,39.99 21.78,0 40.18,-18.31 40.18,-39.99 v -3.15 h -43.33 v 16.55 z"
       id="path6" />
    <polygon
       points="906.69,140.28 888.76,140.28 888.76,218.28 906.69,218.28 906.69,187.55 939.97,187.55 939.97,218.28 957.9,218.28 957.9,140.28 939.97,140.28 939.97,171.01 906.69,171.01 "
       id="polygon7" />
    <polygon
       points="991.19,156.82 991.19,218.28 1008.91,218.28 1008.91,156.82 1035.31,156.82 1035.31,140.28 964.79,140.28 964.79,156.82 "
       id="polygon8" />
  </g>
</svg>
