<?xml version="1.0" encoding="UTF-8" standalone="no"?>
<svg
   version="1.1"
   viewBox="-5 -10 128 128"
   id="svg2"
   sodipodi:docname="icon.svg"
   width="128"
   height="128"
   inkscape:version="1.4 (86a8ad7, 2024-10-11)"
   xmlns:inkscape="http://www.inkscape.org/namespaces/inkscape"
   xmlns:sodipodi="http://sodipodi.sourceforge.net/DTD/sodipodi-0.dtd"
   xmlns="http://www.w3.org/2000/svg"
   xmlns:svg="http://www.w3.org/2000/svg">
  <defs
     id="defs2" />
  <sodipodi:namedview
     id="namedview2"
     pagecolor="#ffffff"
     bordercolor="#000000"
     borderopacity="0.25"
     inkscape:showpageshadow="2"
     inkscape:pageopacity="0.0"
     inkscape:pagecheckerboard="0"
     inkscape:deskcolor="#d1d1d1"
     inkscape:zoom="2"
     inkscape:cx="206.25"
     inkscape:cy="113.75"
     inkscape:window-width="1920"
     inkscape:window-height="1009"
     inkscape:window-x="1912"
     inkscape:window-y="-8"
     inkscape:window-maximized="1"
     inkscape:current-layer="svg2" />
  <path
     d="M 9.60895,105.26357 V 93.61145 h 3.632034 v 11.65212 c 0,4.26154 2.154518,7.72779 4.803375,7.72779 2.648857,0 4.803376,-3.46625 4.803376,-7.72779 V 85.892278 c 0,-3.734226 -1.660178,-6.863453 -3.857748,-7.572235 V 64.636511 h 16.026839 v 13.683532 c -2.19757,0.708805 -3.857748,3.829379 -3.857748,7.572235 v 19.371292 c 0,4.26154 2.154517,7.72779 4.803374,7.72779 2.648858,0 4.803375,-3.46625 4.803375,-7.72779 V 93.61145 h 3.632035 v 11.65212 c 0,4.26154 2.154517,7.72779 4.803374,7.72779 2.648858,0 4.803376,-3.46625 4.803376,-7.72779 V 85.892278 c 0,-4.261554 -2.154518,-7.727801 -4.803376,-7.727801 l -4.593755,0.0086 V 56.91734 c 0,-4.261554 -2.154517,-7.7278 -4.803374,-7.7278 H 32.244452 V 35.263918 H 85.918953 V 49.18954 h -7.742316 c -2.648857,0 -4.803376,3.466246 -4.803376,7.7278 v 21.255767 h -4.572297 c -2.648857,0 -4.803374,3.466247 -4.803374,7.727801 v 19.371282 c 0,4.26156 2.154517,7.72781 4.803374,7.72781 2.648858,0 4.803376,-3.46625 4.803376,-7.72781 V 93.62008 h 3.632034 v 11.65211 c 0,4.26156 2.154518,7.72781 4.803374,7.72781 2.648857,0 4.803375,-3.46625 4.803375,-7.72781 V 85.900908 c 0,-3.734225 -1.660177,-6.863452 -3.857747,-7.572236 V 64.645141 H 99.01221 v 13.683531 c -2.19757,0.708806 -3.85774,3.82938 -3.85774,7.572236 v 19.371282 c 0,4.26156 2.15451,7.72781 4.80337,7.72781 2.64886,0 4.80337,-3.46625 4.80337,-7.72781 V 93.62008 h 3.63204 v 11.65211 c 0,4.26156 2.15452,7.72781 4.80337,7.72781 C 115.84547,113 118,109.53375 118,105.27219 V 85.900908 c 0,-4.261554 -2.15453,-7.727801 -4.80338,-7.727801 h -4.5723 V 56.91734 c 0,-4.261554 -2.15451,-7.7278 -4.80337,-7.7278 H 95.53602 V 27.54497 c 0,-4.261554 -2.15452,-7.727801 -4.803376,-7.727801 H 63.894706 V 2.727801 C 63.894706,-1.5337524 61.740188,-5 59.091331,-5 56.442473,-5 54.287956,-1.5337524 54.287956,2.727801 V 19.817169 H 27.450018 c -2.648858,0 -4.803375,3.466247 -4.803375,7.727801 v 21.64457 h -8.467595 c -2.648857,0 -4.803375,3.466246 -4.803375,7.7278 V 78.173107 H 4.803375 C 2.154517,78.173107 0,81.639354 0,85.900908 V 105.27219 C 0,109.53375 2.154517,113 4.803375,113 c 2.648857,-0.009 4.803374,-3.47489 4.803374,-7.73643 z M 51.67321,85.892278 v 19.371292 c 0,2.20421 -1.11756,4.0022 -2.487655,4.0022 -1.370079,0 -2.487653,-1.79796 -2.487653,-4.0022 V 91.75286 c 0,-1.028637 -0.515796,-1.858465 -1.155164,-1.858465 h -5.942391 c -0.639368,0 -1.155166,0.829828 -1.155166,1.858465 v 13.51071 c 0,2.20421 -1.117559,4.0022 -2.487653,4.0022 -1.370093,0 -2.487653,-1.79796 -2.487653,-4.0022 V 85.892278 c 0,-2.204223 1.11756,-4.002204 2.487653,-4.002204 h 13.23342 c 1.364716,0 2.482289,1.79796 2.482289,4.002204 z m 32.855567,0 v 19.371292 c 0,2.20421 -1.11756,4.0022 -2.487652,4.0022 -1.370095,0 -2.487654,-1.79796 -2.487654,-4.0022 V 91.75286 c 0,-1.028637 -0.515798,-1.858465 -1.155165,-1.858465 h -5.942392 c -0.639368,0 -1.155166,0.829828 -1.155166,1.858465 v 13.51071 c 0,2.20421 -1.117559,4.0022 -2.487652,4.0022 -1.37008,0 -2.487654,-1.79796 -2.487654,-4.0022 V 85.892278 c 0,-2.204223 1.117561,-4.002204 2.487654,-4.002204 h 13.228056 c 1.370079,0 2.487652,1.79796 2.487652,4.002204 z m 31.147233,0 v 19.371292 c 0,2.20421 -1.11755,4.0022 -2.48765,4.0022 -1.37007,0 -2.48764,-1.79796 -2.48764,-4.0022 V 91.75286 c 0,-1.028637 -0.5158,-1.858465 -1.15516,-1.858465 h -5.9424 c -0.63937,0 -1.15516,0.829828 -1.15516,1.858465 v 13.51071 c 0,2.20421 -1.11756,4.0022 -2.48765,4.0022 -1.3701,0 -2.48766,-1.79796 -2.48766,-4.0022 V 85.892278 c 0,-2.204223 1.11756,-4.002204 2.48766,-4.002204 h 13.2334 c 1.36473,0 2.48229,1.79796 2.48229,4.002204 z m -9.37565,-28.984232 v 21.255767 h -4.97531 V 62.768844 c 0,-1.028633 -0.5158,-1.85846 -1.15517,-1.85846 H 81.826772 c -0.639367,0 -1.155165,0.829827 -1.155165,1.85846 V 78.163813 H 75.696301 V 56.908046 c 0,-2.204223 1.11756,-4.002205 2.487653,-4.002205 h 25.628906 c 1.37009,0 2.48766,1.797959 2.48766,4.002205 z M 56.600927,2.728023 c 0,-2.2042223 1.117559,-4.002206 2.487653,-4.002206 1.370092,0 2.487653,1.7979612 2.487653,4.002206 V 19.817391 H 56.600927 Z M 24.96539,27.545412 c 0,-2.204223 1.117559,-4.002204 2.487653,-4.002204 h 63.276575 c 1.370082,0 2.487652,1.79796 2.487652,4.002204 v 21.644569 h -4.975305 l -0.0054,-15.783992 c 0,-1.028632 -0.515798,-1.858461 -1.155165,-1.858461 H 31.096164 c -0.639368,0 -1.155165,0.829829 -1.155165,1.858461 V 49.189981 H 24.965693 Z M 11.694421,56.910259 c 0,-2.204223 1.117559,-4.002205 2.487653,-4.002205 h 25.62891 c 1.37008,0 2.487654,1.79796 2.487654,4.002205 V 78.166026 H 37.32333 V 62.771057 c 0,-1.028632 -0.515795,-1.858461 -1.155164,-1.858461 h -18.34311 c -0.639367,0 -1.155164,0.829829 -1.155164,1.858461 v 15.394969 l -4.975306,0.0086 z M 2.318747,105.266 V 85.894713 c 0,-2.204223 1.117559,-4.002206 2.487654,-4.002206 H 18.03982 c 1.370081,0 2.487654,1.79796 2.487654,4.002206 V 105.266 c 0,2.20421 -1.11756,4.0022 -2.487654,4.0022 -1.370093,0 -2.487654,-1.79795 -2.487654,-4.0022 V 91.75529 c 0,-1.028633 -0.515795,-1.85846 -1.155163,-1.85846 H 8.449247 c -0.639369,0 -1.155164,0.829827 -1.155164,1.85846 V 105.266 c 0,2.20421 -1.117561,4.0022 -2.487655,4.0022 -1.370079,0 -2.487654,-1.79795 -2.487654,-4.0022 z"
     id="path1"
     style="stroke-width:1.74463" />
</svg>
